%TF.GenerationSoftware,KiCad,Pcbnew,10.0.4*%
%TF.CreationDate,2026-07-21T19:24:32+01:00*%
%TF.ProjectId,flex tip sensor,666c6578-2074-4697-9020-73656e736f72,rev?*%
%TF.SameCoordinates,Original*%
%TF.FileFunction,Copper,L1,Top*%
%TF.FilePolarity,Positive*%
%FSLAX46Y46*%
G04 Gerber Fmt 4.6, Leading zero omitted, Abs format (unit mm)*
G04 Created by KiCad (PCBNEW 10.0.4) date 2026-07-21 19:24:32*
%MOMM*%
%LPD*%
G01*
G04 APERTURE LIST*
%TA.AperFunction,Conductor*%
%ADD10C,0.350000*%
%TD*%
%TA.AperFunction,Conductor*%
%ADD11C,0.400000*%
%TD*%
%TA.AperFunction,Conductor*%
%ADD12C,0.200000*%
%TD*%
G04 APERTURE END LIST*
%TO.N,unconnected-(TP2-Pad1)*%
D10*
X80135000Y-137000000D02*
G75*
G02*
X79785000Y-137000000I-175000J0D01*
G01*
X79785000Y-137000000D02*
G75*
G02*
X80135000Y-137000000I175000J0D01*
G01*
X80425000Y-139000000D02*
G75*
G02*
X80075000Y-139000000I-175000J0D01*
G01*
X80075000Y-139000000D02*
G75*
G02*
X80425000Y-139000000I175000J0D01*
G01*
%TD*%
%TO.N,unconnected-(TP2-Pad1)*%
D11*
X79300000Y-50450000D02*
X79300000Y-53650000D01*
D12*
X51700000Y-50350000D02*
X51600000Y-50450000D01*
X79970000Y-50350000D02*
X51700000Y-50350000D01*
X80650000Y-51030000D02*
X79970000Y-50350000D01*
X80650000Y-138370000D02*
X80650000Y-51030000D01*
D11*
X51000000Y-51340000D02*
X51000000Y-50850000D01*
X74500000Y-50450000D02*
X74500000Y-53650000D01*
X70900000Y-50450000D02*
X70900000Y-53650000D01*
X73300000Y-50450000D02*
X73300000Y-53650000D01*
X75700000Y-50450000D02*
X75700000Y-53650000D01*
X78100000Y-50450000D02*
X78100000Y-53650000D01*
X76900000Y-50450000D02*
X76900000Y-53650000D01*
X72100000Y-50450000D02*
X72100000Y-53650000D01*
X76300000Y-54050000D02*
X76300000Y-50850000D01*
X78700000Y-54050000D02*
X78700000Y-50850000D01*
X73900000Y-54050000D02*
X73900000Y-50850000D01*
X77500000Y-54050000D02*
X77500000Y-50850000D01*
X70300000Y-54050000D02*
X70300000Y-50850000D01*
X71500000Y-54050000D02*
X71500000Y-50850000D01*
X75100000Y-54050000D02*
X75100000Y-50850000D01*
X72700000Y-54050000D02*
X72700000Y-50850000D01*
X64800000Y-50450000D02*
X64800000Y-53650000D01*
X61200000Y-50450000D02*
X61200000Y-53650000D01*
X63600000Y-50450000D02*
X63600000Y-53650000D01*
X66000000Y-50450000D02*
X66000000Y-53650000D01*
X68400000Y-50450000D02*
X68400000Y-53650000D01*
X69600000Y-50450000D02*
X69600000Y-53650000D01*
X67200000Y-50450000D02*
X67200000Y-53650000D01*
X62400000Y-50450000D02*
X62400000Y-53650000D01*
X64200000Y-54050000D02*
X64200000Y-50850000D01*
X60600000Y-54050000D02*
X60600000Y-50850000D01*
X61800000Y-54050000D02*
X61800000Y-50850000D01*
X63000000Y-54050000D02*
X63000000Y-50850000D01*
X65400000Y-54050000D02*
X65400000Y-50850000D01*
X69000000Y-54050000D02*
X69000000Y-50850000D01*
X66600000Y-54050000D02*
X66600000Y-50850000D01*
X67800000Y-54050000D02*
X67800000Y-50850000D01*
X60000000Y-50450000D02*
X60000000Y-53650000D01*
X56400000Y-50450000D02*
X56400000Y-53650000D01*
X58800000Y-50450000D02*
X58800000Y-53650000D01*
X57600000Y-50450000D02*
X57600000Y-53650000D01*
X59400000Y-54050000D02*
X59400000Y-50850000D01*
X55800000Y-54050000D02*
X55800000Y-50850000D01*
X57000000Y-54050000D02*
X57000000Y-50850000D01*
X58200000Y-54050000D02*
X58200000Y-50850000D01*
X54000000Y-50450000D02*
X54000000Y-53650000D01*
X55200000Y-50450000D02*
X55200000Y-53650000D01*
X52800000Y-50450000D02*
X52800000Y-53650000D01*
X53400000Y-54050000D02*
X53400000Y-50850000D01*
X54600000Y-54050000D02*
X54600000Y-50850000D01*
X52200000Y-54050000D02*
X52200000Y-50850000D01*
X51000000Y-54050000D02*
X51000000Y-51340000D01*
X51600000Y-50450000D02*
X51600000Y-53650000D01*
D12*
X80650000Y-138630000D02*
X80650000Y-137303884D01*
X80270000Y-139010000D02*
X80650000Y-138630000D01*
X51100000Y-54150000D02*
X51000000Y-54050000D01*
X79850000Y-54750876D02*
X79249124Y-54150000D01*
X79249124Y-54150000D02*
X51100000Y-54150000D01*
X79850000Y-136850000D02*
X79850000Y-54750876D01*
X80000000Y-137000000D02*
X79850000Y-136850000D01*
%TD*%
M02*
